<svg id="visual" viewBox="0 0 900 600" width="900" height="600" xmlns="http://www.w3.org/2000/svg" xmlns:xlink="http://www.w3.org/1999/xlink" version="1.1"><path d="M0 199L13.7 189C27.3 179 54.7 159 82 153C109.3 147 136.7 155 163.8 158C191 161 218 159 245.2 174C272.3 189 299.7 221 327 245C354.3 269 381.7 285 409 262C436.3 239 463.7 177 491 172C518.3 167 545.7 219 573 238C600.3 257 627.7 243 654.8 225C682 207 709 185 736.2 163C763.3 141 790.7 119 818 117C845.3 115 872.7 133 886.3 142L900 151L900 0L886.3 0C872.7 0 845.3 0 818 0C790.7 0 763.3 0 736.2 0C709 0 682 0 654.8 0C627.7 0 600.3 0 573 0C545.7 0 518.3 0 491 0C463.7 0 436.3 0 409 0C381.7 0 354.3 0 327 0C299.7 0 272.3 0 245.2 0C218 0 191 0 163.8 0C136.7 0 109.3 0 82 0C54.7 0 27.3 0 13.7 0L0 0Z" fill="#2a2f33"></path><path d="M0 271L13.7 262C27.3 253 54.7 235 82 241C109.3 247 136.7 277 163.8 287C191 297 218 287 245.2 289C272.3 291 299.7 305 327 321C354.3 337 381.7 355 409 335C436.3 315 463.7 257 491 264C518.3 271 545.7 343 573 359C600.3 375 627.7 335 654.8 302C682 269 709 243 736.2 234C763.3 225 790.7 233 818 236C845.3 239 872.7 237 886.3 236L900 235L900 149L886.3 140C872.7 131 845.3 113 818 115C790.7 117 763.3 139 736.2 161C709 183 682 205 654.8 223C627.7 241 600.3 255 573 236C545.7 217 518.3 165 491 170C463.7 175 436.3 237 409 260C381.7 283 354.3 267 327 243C299.7 219 272.3 187 245.2 172C218 157 191 159 163.8 156C136.7 153 109.3 145 82 151C54.7 157 27.3 177 13.7 187L0 197Z" fill="#20272e"></path><path d="M0 463L13.7 457C27.3 451 54.7 439 82 431C109.3 423 136.7 419 163.8 427C191 435 218 455 245.2 463C272.3 471 299.7 467 327 466C354.3 465 381.7 467 409 467C436.3 467 463.7 465 491 470C518.3 475 545.7 487 573 485C600.3 483 627.7 467 654.8 452C682 437 709 423 736.2 423C763.3 423 790.7 437 818 442C845.3 447 872.7 443 886.3 441L900 439L900 233L886.3 234C872.7 235 845.3 237 818 234C790.7 231 763.3 223 736.2 232C709 241 682 267 654.8 300C627.7 333 600.3 373 573 357C545.7 341 518.3 269 491 262C463.7 255 436.3 313 409 333C381.7 353 354.3 335 327 319C299.7 303 272.3 289 245.2 287C218 285 191 295 163.8 285C136.7 275 109.3 245 82 239C54.7 233 27.3 251 13.7 260L0 269Z" fill="#16202a"></path><path d="M0 559L13.7 553C27.3 547 54.7 535 82 524C109.3 513 136.7 503 163.8 501C191 499 218 505 245.2 517C272.3 529 299.7 547 327 554C354.3 561 381.7 557 409 554C436.3 551 463.7 549 491 547C518.3 545 545.7 543 573 543C600.3 543 627.7 545 654.8 539C682 533 709 519 736.2 516C763.3 513 790.7 521 818 520C845.3 519 872.7 509 886.3 504L900 499L900 437L886.3 439C872.7 441 845.3 445 818 440C790.7 435 763.3 421 736.2 421C709 421 682 435 654.8 450C627.7 465 600.3 481 573 483C545.7 485 518.3 473 491 468C463.7 463 436.3 465 409 465C381.7 465 354.3 463 327 464C299.7 465 272.3 469 245.2 461C218 453 191 433 163.8 425C136.7 417 109.3 421 82 429C54.7 437 27.3 449 13.7 455L0 461Z" fill="#0c1926"></path><path d="M0 601L13.7 601C27.3 601 54.7 601 82 601C109.3 601 136.7 601 163.8 601C191 601 218 601 245.2 601C272.3 601 299.7 601 327 601C354.3 601 381.7 601 409 601C436.3 601 463.7 601 491 601C518.3 601 545.7 601 573 601C600.3 601 627.7 601 654.8 601C682 601 709 601 736.2 601C763.3 601 790.7 601 818 601C845.3 601 872.7 601 886.3 601L900 601L900 497L886.3 502C872.7 507 845.3 517 818 518C790.7 519 763.3 511 736.2 514C709 517 682 531 654.8 537C627.7 543 600.3 541 573 541C545.7 541 518.3 543 491 545C463.7 547 436.3 549 409 552C381.7 555 354.3 559 327 552C299.7 545 272.3 527 245.2 515C218 503 191 497 163.8 499C136.7 501 109.3 511 82 522C54.7 533 27.3 545 13.7 551L0 557Z" fill="#001122"></path></svg>