<svg id="visual" viewBox="0 0 900 600" width="900" height="600" xmlns="http://www.w3.org/2000/svg" xmlns:xlink="http://www.w3.org/1999/xlink" version="1.1"><rect x="0" y="0" width="900" height="600" fill="#ffffff"></rect><path d="M0 250L21.5 246.8C43 243.7 86 237.3 128.8 248C171.7 258.7 214.3 286.3 257.2 290.8C300 295.3 343 276.7 385.8 257.5C428.7 238.3 471.3 218.7 514.2 230.2C557 241.7 600 284.3 642.8 291.7C685.7 299 728.3 271 771.2 257.8C814 244.7 857 246.3 878.5 247.2L900 248L900 601L878.5 601C857 601 814 601 771.2 601C728.3 601 685.7 601 642.8 601C600 601 557 601 514.2 601C471.3 601 428.7 601 385.8 601C343 601 300 601 257.2 601C214.3 601 171.7 601 128.8 601C86 601 43 601 21.5 601L0 601Z" fill="#83bf20"></path><path d="M0 320L21.5 332.5C43 345 86 370 128.8 368.3C171.7 366.7 214.3 338.3 257.2 318.3C300 298.3 343 286.7 385.8 290C428.7 293.3 471.3 311.7 514.2 332C557 352.3 600 374.7 642.8 372.5C685.7 370.3 728.3 343.7 771.2 334C814 324.3 857 331.7 878.5 335.3L900 339L900 601L878.5 601C857 601 814 601 771.2 601C728.3 601 685.7 601 642.8 601C600 601 557 601 514.2 601C471.3 601 428.7 601 385.8 601C343 601 300 601 257.2 601C214.3 601 171.7 601 128.8 601C86 601 43 601 21.5 601L0 601Z" fill="#00a87d"></path><path d="M0 459L21.5 447.2C43 435.3 86 411.7 128.8 395.5C171.7 379.3 214.3 370.7 257.2 377.5C300 384.3 343 406.7 385.8 419.3C428.7 432 471.3 435 514.2 422.3C557 409.7 600 381.3 642.8 371.7C685.7 362 728.3 371 771.2 374.8C814 378.7 857 377.3 878.5 376.7L900 376L900 601L878.5 601C857 601 814 601 771.2 601C728.3 601 685.7 601 642.8 601C600 601 557 601 514.2 601C471.3 601 428.7 601 385.8 601C343 601 300 601 257.2 601C214.3 601 171.7 601 128.8 601C86 601 43 601 21.5 601L0 601Z" fill="#008392"></path><path d="M0 451L21.5 448.8C43 446.7 86 442.3 128.8 439.5C171.7 436.7 214.3 435.3 257.2 441.2C300 447 343 460 385.8 466C428.7 472 471.3 471 514.2 476.8C557 482.7 600 495.3 642.8 490.3C685.7 485.3 728.3 462.7 771.2 459.7C814 456.7 857 473.3 878.5 481.7L900 490L900 601L878.5 601C857 601 814 601 771.2 601C728.3 601 685.7 601 642.8 601C600 601 557 601 514.2 601C471.3 601 428.7 601 385.8 601C343 601 300 601 257.2 601C214.3 601 171.7 601 128.8 601C86 601 43 601 21.5 601L0 601Z" fill="#005b85"></path><path d="M0 487L21.5 498.8C43 510.7 86 534.3 128.8 540.2C171.7 546 214.3 534 257.2 532C300 530 343 538 385.8 538.2C428.7 538.3 471.3 530.7 514.2 522.8C557 515 600 507 642.8 511.5C685.7 516 728.3 533 771.2 537.5C814 542 857 534 878.5 530L900 526L900 601L878.5 601C857 601 814 601 771.2 601C728.3 601 685.7 601 642.8 601C600 601 557 601 514.2 601C471.3 601 428.7 601 385.8 601C343 601 300 601 257.2 601C214.3 601 171.7 601 128.8 601C86 601 43 601 21.5 601L0 601Z" fill="#003169"></path></svg>