<svg id="visual" viewBox="0 0 900 600" width="900" height="600" xmlns="http://www.w3.org/2000/svg" xmlns:xlink="http://www.w3.org/1999/xlink" version="1.1"><rect x="0" y="0" width="900" height="600" fill="#ffffff"></rect><path d="M0 366L21.5 374.8C43 383.7 86 401.3 128.8 407C171.7 412.7 214.3 406.3 257.2 399.8C300 393.3 343 386.7 385.8 392.7C428.7 398.7 471.3 417.3 514.2 425.3C557 433.3 600 430.7 642.8 425.7C685.7 420.7 728.3 413.3 771.2 410.8C814 408.3 857 410.7 878.5 411.8L900 413L900 601L878.5 601C857 601 814 601 771.2 601C728.3 601 685.7 601 642.8 601C600 601 557 601 514.2 601C471.3 601 428.7 601 385.8 601C343 601 300 601 257.2 601C214.3 601 171.7 601 128.8 601C86 601 43 601 21.5 601L0 601Z" fill="#83bf20"></path><path d="M0 404L21.5 411.2C43 418.3 86 432.7 128.8 440.2C171.7 447.7 214.3 448.3 257.2 453.7C300 459 343 469 385.8 469.3C428.7 469.7 471.3 460.3 514.2 457.2C557 454 600 457 642.8 458.3C685.7 459.7 728.3 459.3 771.2 450C814 440.7 857 422.3 878.5 413.2L900 404L900 601L878.5 601C857 601 814 601 771.2 601C728.3 601 685.7 601 642.8 601C600 601 557 601 514.2 601C471.3 601 428.7 601 385.8 601C343 601 300 601 257.2 601C214.3 601 171.7 601 128.8 601C86 601 43 601 21.5 601L0 601Z" fill="#00a87d"></path><path d="M0 468L21.5 465.3C43 462.7 86 457.3 128.8 459.2C171.7 461 214.3 470 257.2 475.3C300 480.7 343 482.3 385.8 483.7C428.7 485 471.3 486 514.2 488.5C557 491 600 495 642.8 489.7C685.7 484.3 728.3 469.7 771.2 468.2C814 466.7 857 478.3 878.5 484.2L900 490L900 601L878.5 601C857 601 814 601 771.2 601C728.3 601 685.7 601 642.8 601C600 601 557 601 514.2 601C471.3 601 428.7 601 385.8 601C343 601 300 601 257.2 601C214.3 601 171.7 601 128.8 601C86 601 43 601 21.5 601L0 601Z" fill="#008392"></path><path d="M0 524L21.5 518.2C43 512.3 86 500.7 128.8 495.3C171.7 490 214.3 491 257.2 498.7C300 506.3 343 520.7 385.8 520C428.7 519.3 471.3 503.7 514.2 504.7C557 505.7 600 523.3 642.8 531.7C685.7 540 728.3 539 771.2 531.5C814 524 857 510 878.5 503L900 496L900 601L878.5 601C857 601 814 601 771.2 601C728.3 601 685.7 601 642.8 601C600 601 557 601 514.2 601C471.3 601 428.7 601 385.8 601C343 601 300 601 257.2 601C214.3 601 171.7 601 128.8 601C86 601 43 601 21.5 601L0 601Z" fill="#005b85"></path><path d="M0 532L21.5 538.2C43 544.3 86 556.7 128.8 557.3C171.7 558 214.3 547 257.2 542.3C300 537.7 343 539.3 385.8 541.5C428.7 543.7 471.3 546.3 514.2 544C557 541.7 600 534.3 642.8 535.2C685.7 536 728.3 545 771.2 550C814 555 857 556 878.5 556.5L900 557L900 601L878.5 601C857 601 814 601 771.2 601C728.3 601 685.7 601 642.8 601C600 601 557 601 514.2 601C471.3 601 428.7 601 385.8 601C343 601 300 601 257.2 601C214.3 601 171.7 601 128.8 601C86 601 43 601 21.5 601L0 601Z" fill="#003169"></path></svg>